<?xml version="1.0" standalone="no"?>
<svg xmlns="http://www.w3.org/2000/svg" viewBox="0 0 119 68" width="119" height="68"><g fill="#cca131" color="#cca131" transform="translate(41.877 0) scale(0.35) "><svg width="100.0" height="100.0" x="0.0" y="0.0" viewBox="0 0 100 100"><title></title><path d="M86.24,54.28c1.17-9.82,2.5-20.95-.39-27.42-4.31-12.15-17.32-20.94-31-20.94-17.51,0-32.35,14-32.8,30.65L12.68,60.47A4,4,0,0,0,16,65.91l6.75.64,2.63,12.8a4,4,0,0,0,4.18,3.18L39,81.91l-.3,8a4,4,0,0,0,4,4.15h0l40.41-.46a4,4,0,0,0,3.94-4.38L85.49,72.3a59.14,59.14,0,0,1-.13-9.57C85.52,60.33,85.87,57.39,86.24,54.28ZM77.52,73.06l1.2,12.61L46.86,86,47,81l10.19-1.88-1.45-7.87L42.67,73.64l-10.13.68L30,62a4,4,0,0,0-3.54-3.18l-4.41-.42L29.74,38.8A4,4,0,0,0,30,37.35c0-12.48,11.59-23.43,24.81-23.43,10.3,0,20.41,6.77,23.53,15.75,0,.13.1.26.16.38,2,4.37.74,15.3-.21,23.28-.38,3.21-.75,6.24-.92,8.85A67,67,0,0,0,77.52,73.06Z"></path><rect x="38.8" y="37.5" width="30.41" height="7" transform="matrix(0.18, -0.98, 0.98, 0.18, 4.13, 86.94)"></rect><polygon points="60.07 33.41 66.07 41 60.07 48.59 65.56 52.93 74.99 41 65.56 29.07 60.07 33.41"></polygon><polygon points="41.93 41 47.93 33.41 42.44 29.07 33.01 41 42.44 52.93 47.93 48.59 41.93 41"></polygon></svg></g><line x1="42.926000000000016" y1="41" x2="75.82600000000002" y2="41" stroke="#0a1256" stroke-linecap="round"></line><path fill="#0a1256" fill-rule="nonzero" d="M1.78 2.86L1.78 2.86L1.78 15.48L0 15.48L0 0.29L2.21 0.29Q3.84 4.06 6.31 11.38L6.31 11.38Q6.82 12.91 7.10 13.68L7.10 13.68Q7.39 12.82 7.61 12.19L7.61 12.19Q10.30 4.30 12.05 0.29L12.05 0.29L14.21 0.29L14.21 15.48L12.43 15.48L12.43 2.83Q11.18 6.86 7.92 15.48L7.92 15.48L6.31 15.48Q3.46 8.47 1.78 2.86ZM28.01 10.06L28.01 10.06Q28.01 12.65 26.38 14.30L26.38 14.30Q24.91 15.77 22.78 15.77L22.78 15.77Q20.30 15.77 18.79 13.90L18.79 13.90Q17.52 12.31 17.52 10.06L17.52 10.06Q17.52 7.42 19.10 5.78L19.10 5.78Q20.54 4.30 22.78 4.30L22.78 4.30Q25.30 4.30 26.78 6.19L26.78 6.19Q28.01 7.78 28.01 10.06ZM19.25 10.06L19.25 10.06Q19.25 12.14 20.33 13.37L20.33 13.37Q21.29 14.45 22.75 14.45L22.75 14.45Q24.34 14.45 25.31 13.24Q26.28 12.02 26.28 10.06L26.28 10.06Q26.28 7.99 25.22 6.74L25.22 6.74Q24.26 5.59 22.78 5.59L22.78 5.59Q21.19 5.59 20.22 6.83Q19.25 8.06 19.25 10.06ZM40.20 8.98L40.20 15.48L38.62 15.48L38.62 9.10Q38.62 5.69 35.64 5.69L35.64 5.69Q34.78 5.69 33.94 6.10Q33.10 6.50 32.64 7.13L32.64 7.13L32.64 15.48L31.03 15.48L31.03 4.58L32.38 4.58L32.52 5.74L32.59 5.74Q34.01 4.30 36.14 4.30L36.14 4.30Q40.20 4.30 40.20 8.98L40.20 8.98ZM44.11 15.46L44.11 15.46L44.11 0.29Q46.06 0 48.02 0L48.02 0Q50.78 0 52.10 1.32L52.10 1.32Q53.14 2.38 53.14 4.10L53.14 4.10Q53.14 5.30 52.40 6.19Q51.67 7.08 50.47 7.37L50.47 7.37L50.47 7.39Q51.94 7.63 52.78 8.72Q53.62 9.82 53.62 11.47L53.62 11.47Q53.62 13.66 51.91 14.78L51.91 14.78Q50.45 15.77 48.02 15.77L48.02 15.77Q46.25 15.77 44.11 15.46ZM45.89 1.58L45.89 1.58L45.89 6.70L48.38 6.70Q49.68 6.70 50.48 6.04Q51.29 5.38 51.29 4.27L51.29 4.27Q51.29 1.42 47.98 1.42L47.98 1.42Q46.70 1.42 45.89 1.58ZM48.38 8.18L45.89 8.18L45.89 14.18Q46.90 14.33 48.24 14.33L48.24 14.33Q51.72 14.33 51.72 11.45L51.72 11.45Q51.72 9.91 50.84 9.05Q49.97 8.18 48.38 8.18L48.38 8.18ZM56.69 0.86L58.30 0L58.30 15.48L56.69 15.48L56.69 0.86ZM71.81 10.06L71.81 10.06Q71.81 12.65 70.18 14.30L70.18 14.30Q68.71 15.77 66.58 15.77L66.58 15.77Q64.10 15.77 62.59 13.90L62.59 13.90Q61.32 12.31 61.32 10.06L61.32 10.06Q61.32 7.42 62.90 5.78L62.90 5.78Q64.34 4.30 66.58 4.30L66.58 4.30Q69.10 4.30 70.58 6.19L70.58 6.19Q71.81 7.78 71.81 10.06ZM63.05 10.06L63.05 10.06Q63.05 12.14 64.13 13.37L64.13 13.37Q65.09 14.45 66.55 14.45L66.55 14.45Q68.14 14.45 69.11 13.24Q70.08 12.02 70.08 10.06L70.08 10.06Q70.08 7.99 69.02 6.74L69.02 6.74Q68.06 5.59 66.58 5.59L66.58 5.59Q64.99 5.59 64.02 6.83Q63.05 8.06 63.05 10.06ZM82.51 5.69L82.51 5.69L82.75 4.58L84.00 4.58L84.00 14.59Q84.00 20.06 79.22 20.06L79.22 20.06Q76.97 20.06 75.24 18.55L75.24 18.55L75.79 17.66Q77.28 18.70 78.96 18.70L78.96 18.70Q80.74 18.70 81.58 17.71Q82.42 16.73 82.42 14.59L82.42 14.59L82.42 14.38Q81.24 15.77 79.20 15.77L79.20 15.77Q76.82 15.77 75.43 13.99L75.43 13.99Q74.23 12.46 74.23 10.18L74.23 10.18Q74.23 7.30 75.91 5.66L75.91 5.66Q77.30 4.30 79.34 4.30L79.34 4.30Q80.26 4.30 81.16 4.69Q82.06 5.09 82.51 5.69ZM82.42 12.58L82.42 12.58L82.42 7.37Q82.10 6.62 81.29 6.11Q80.47 5.59 79.56 5.59L79.56 5.59Q77.98 5.59 76.97 6.83Q75.96 8.06 75.96 10.01L75.96 10.01Q75.96 12.22 77.06 13.44L77.06 13.44Q78.02 14.45 79.46 14.45L79.46 14.45Q80.42 14.45 81.23 13.93Q82.03 13.42 82.42 12.58ZM89.81 15.48L88.03 15.48L88.03 0.29Q90.17 0 91.73 0L91.73 0Q97.10 0 97.10 4.61L97.10 4.61Q97.10 6.94 95.59 8.18L95.59 8.18Q94.22 9.29 91.92 9.29L91.92 9.29Q90.89 9.29 89.81 9.14L89.81 9.14L89.81 15.48ZM89.81 1.58L89.81 1.58L89.81 7.70Q90.67 7.85 91.82 7.85L91.82 7.85Q95.23 7.85 95.23 4.61L95.23 4.61Q95.23 1.42 91.73 1.42L91.73 1.42Q90.62 1.42 89.81 1.58ZM107.28 5.52L107.28 5.52L105.96 6.43Q105.14 5.71 104.21 5.71L104.21 5.71Q102.84 5.71 101.78 7.13L101.78 7.13L101.78 15.48L100.18 15.48L100.18 4.58L101.54 4.58L101.69 5.74L101.74 5.74Q103.15 4.30 104.64 4.30L104.64 4.30Q106.39 4.30 107.28 5.52ZM118.75 10.06L118.75 10.06Q118.75 12.65 117.12 14.30L117.12 14.30Q115.66 15.77 113.52 15.77L113.52 15.77Q111.05 15.77 109.54 13.90L109.54 13.90Q108.26 12.31 108.26 10.06L108.26 10.06Q108.26 7.42 109.85 5.78L109.85 5.78Q111.29 4.30 113.52 4.30L113.52 4.30Q116.04 4.30 117.53 6.19L117.53 6.19Q118.75 7.78 118.75 10.06ZM109.99 10.06L109.99 10.06Q109.99 12.14 111.07 13.37L111.07 13.37Q112.03 14.45 113.50 14.45L113.50 14.45Q115.08 14.45 116.05 13.24Q117.02 12.02 117.02 10.06L117.02 10.06Q117.02 7.99 115.97 6.74L115.97 6.74Q115.01 5.59 113.52 5.59L113.52 5.59Q111.94 5.59 110.96 6.83Q109.99 8.06 109.99 10.06Z" transform="translate(0, 47)"></path></svg>